<mxfile host="app.diagrams.net" modified="2023-10-18T02:27:52.961Z" agent="Mozilla/5.0 (Windows NT 10.0; Win64; x64) AppleWebKit/537.36 (KHTML, like Gecko) Chrome/117.0.0.0 Safari/537.36" version="22.0.4" etag="QbrJQKeeG5AjN7aW4ZcW" type="github">
  <diagram name="第 1 页" id="S5fb6D98zMIZyWmLSorh">
    <mxGraphModel>
      <root>
        <mxCell id="0" />
        <mxCell id="1" parent="0" />
      </root>
    </mxGraphModel>
  </diagram>
</mxfile>
